{"title":"Madras Cafe 2013 Hindi Movies SuperCamRip XviD New Souce Good Qu","uid":8844113,"size":743579648,"categoryP":"video","categoryS":"movies","magnet":"?xt=urn:btih:731578039c990a9c50df5bea48a9ba5f41156ba3&amp;dn=Madras+Cafe+2013+Hindi+Movies+SuperCamRip+XviD+New+Souce+Good+Qu&amp;tr=udp%3A%2F%2Ftracker.openbittorrent.com%3A80&amp;tr=udp%3A%2F%2Fopen.demonii.com%3A1337&amp;tr=udp%3A%2F%2Ftracker.coppersurfer.tk%3A6969&amp;tr=udp%3A%2F%2Fexodus.desync.com%3A6969","seeders":0,"leechers":1,"uploader":"basicssom","files":2,"time":1377331253,"description":" &lt;a href=&quot;http://users2.jabry.com/myimghost/logo.jpg&quot; rel=&quot;nofollow&quot; target=&quot;_NEW&quot;&gt;http://users2.jabry.com/myimghost/logo.jpg&lt;/a&gt;\n\nMadras Cafe 2013 Hindi Movies SuperCamRip XviD New Souce Good Quality with Sample ~ â˜»rDXâ˜»\n\nScreen Shots :\n &lt;a href=&quot;\nhttp://myimghosting.serveftp.com/13/MadrasCafe.html&quot; rel=&quot;nofollow&quot; target=&quot;_NEW&quot;&gt;\nhttp://myimghosting.serveftp.com/13/MadrasCafe.html&lt;/a&gt;\n &lt;a href=&quot;\nhttp://myimghost.cwahi.net/MadrasCafe.html&quot; rel=&quot;nofollow&quot; target=&quot;_NEW&quot;&gt;\nhttp://myimghost.cwahi.net/MadrasCafe.html&lt;/a&gt;\n\nAll rDX torrents are Seeding From the 1Gbps Seedbox 24X7\n &lt;a href=&quot;\nhttp://users2.jabry.com/myimghost/MadrasCafe/MadrasCafe.jpg&quot; rel=&quot;nofollow&quot; target=&quot;_NEW&quot;&gt;\nhttp://users2.jabry.com/myimghost/MadrasCafe/MadrasCafe.jpg&lt;/a&gt;\n\nFormat                                   : MPEG-PS\nFile size                                : 689 MiB\nDuration                                 : 1h 57mn\nOverall bit rate mode                    : Variable\nOverall bit rate                         : 818 Kbps\n\nVideo\nID                                       : 224 (0xE0)\nFormat                                   : MPEG Video\nFormat version                           : Version 2\nFormat profile                           : Main@Main\nFormat settings, BVOP                    : Yes\nFormat settings, Matrix                  : Default\nFormat settings, GOP                     : Variable\nDuration                                 : 1h 57mn\nBit rate mode                            : Variable\nBit rate                                 : 674 Kbps\nMaximum bit rate                         : 9 672 Kbps\nWidth                                    : 352 pixels\nHeight                                   : 288 pixels\nDisplay aspect ratio                     : 4:3\nFrame rate                               : 25.000 fps\nStandard                                 : PAL\nColor space                              : YUV\nChroma subsampling                       : 4:2:0\nBit depth                                : 8 bits\nScan type                                : Progressive\nCompression mode                         : Lossy\nBits/(Pixel*Frame)                       : 0.266\nStream size                              : 568 MiB (82%)\n\nAudio\nID                                       : 192 (0xC0)\nFormat                                   : MPEG Audio\nFormat version                           : Version 1\nFormat profile                           : Layer 2\nDuration                                 : 1h 57mn\nBit rate mode                            : Constant\nBit rate                                 : 128 Kbps\nChannel(s)                               : 2 channels\nSampling rate                            : 48.0 KHz\nCompression mode                         : Lossy\nDelay relative to video                  : -208ms\nStream size                              : 108 MiB (16%)","torrent":{"xt":"urn:btih:731578039c990a9c50df5bea48a9ba5f41156ba3","amp;dn":"Madras+Cafe+2013+Hindi+Movies+SuperCamRip+XviD+New+Souce+Good+Qu","amp;tr":["udp%3A%2F%2Ftracker.openbittorrent.com%3A80","udp%3A%2F%2Fopen.demonii.com%3A1337","udp%3A%2F%2Ftracker.coppersurfer.tk%3A6969","udp%3A%2F%2Fexodus.desync.com%3A6969"],"infoHash":"731578039c990a9c50df5bea48a9ba5f41156ba3","infoHashBuffer":{"type":"Buffer","data":[115,21,120,3,156,153,10,156,80,223,91,234,72,169,186,95,65,21,107,163]},"announce":[],"urlList":[]}}